<?xml version="1.0" encoding="UTF-8" standalone="no"?>
<!-- Uploaded to: SVG Repo, www.svgrepo.com, Generator: SVG Repo Mixer Tools -->

<svg
   height="40px"
   width="40px"
   version="1.1"
   id="Layer_1"
   viewBox="0 0 291.32 291.32"
   xml:space="preserve"
   sodipodi:docname="pluginIcon.svg"
   inkscape:version="1.4 (e7c3feb100, 2024-10-09)"
   xmlns:inkscape="http://www.inkscape.org/namespaces/inkscape"
   xmlns:sodipodi="http://sodipodi.sourceforge.net/DTD/sodipodi-0.dtd"
   xmlns="http://www.w3.org/2000/svg"
   xmlns:svg="http://www.w3.org/2000/svg"><defs
   id="defs1" /><sodipodi:namedview
   id="namedview1"
   pagecolor="#ffffff"
   bordercolor="#000000"
   borderopacity="0.25"
   inkscape:showpageshadow="2"
   inkscape:pageopacity="0.0"
   inkscape:pagecheckerboard="0"
   inkscape:deskcolor="#d1d1d1"
   showgrid="false"
   inkscape:zoom="5.03125"
   inkscape:cx="99.776397"
   inkscape:cy="8.7453416"
   inkscape:window-width="1920"
   inkscape:window-height="1011"
   inkscape:window-x="0"
   inkscape:window-y="0"
   inkscape:window-maximized="1"
   inkscape:current-layer="Layer_1" />

<path
   d="m 146.57467,30.575377 a 15.230384,15.105543 0 0 0 -5.83694,1.47691 L 61.092182,70.107859 A 15.230384,15.105543 0 0 0 52.851308,80.355331 L 33.202575,165.83781 a 15.230384,15.105543 0 0 0 2.067549,11.58162 15.230384,15.105543 0 0 0 0.865738,1.20212 l 55.12796,68.54244 a 15.230384,15.105543 0 0 0 11.907578,5.68406 l 88.40633,-0.0201 a 15.230384,15.105543 0 0 0 11.90724,-5.67363 l 55.10742,-68.5532 a 15.230384,15.105543 0 0 0 2.94373,-12.78373 L 241.85641,80.33487 a 15.230384,15.105543 0 0 0 -8.24053,-10.247137 l -79.6563,-38.035709 a 15.230384,15.105543 0 0 0 -7.38491,-1.476575 z"
   fill="#326ce5"
   id="path1"
   style="stroke-width:0.325959" /><path
   style="line-height:normal;-inkscape-font-specification:Sans;text-indent:0;text-align:start;text-decoration-line:none;text-transform:none;marker:none"
   d="m 147.36381,59.666126 c -2.63277,0 -4.76746,2.371687 -4.76715,5.296829 0,0.04497 0.009,0.088 0.0101,0.132326 -0.004,0.397673 -0.0228,0.876519 -0.0101,1.222345 0.0626,1.687175 0.43026,2.978618 0.65193,4.533108 0.40093,3.326721 0.73667,6.084652 0.52969,8.647988 -0.20178,0.966461 -0.91368,1.850456 -1.54831,2.464887 l -0.11213,2.017021 a 62.041859,62.041859 0 0 0 -8.61735,1.324051 c -12.37825,2.810737 -23.03544,9.186803 -31.14953,17.795349 a 79.914136,79.914136 0 0 1 -1.72138,-1.22234 c -0.851079,0.11505 -1.711283,0.37779 -2.831922,-0.27512 -2.133389,-1.43585 -4.076424,-3.417984 -6.427554,-5.805963 -1.077296,-1.142153 -1.857309,-2.229872 -3.137347,-3.33096 -0.290433,-0.250013 -0.734059,-0.588028 -1.059376,-0.845517 -1.000699,-0.797622 -2.180661,-1.213887 -3.320539,-1.252677 -1.465505,-0.0502 -2.876241,0.522836 -3.799361,1.680635 -1.64151,2.058445 -1.115751,5.204896 1.171168,7.028327 0.02348,0.01869 0.04792,0.03292 0.07171,0.05115 0.313912,0.25459 0.698863,0.5812 0.987665,0.794364 1.358266,1.002981 2.599179,1.516371 3.952221,2.312361 2.851156,1.76081 5.215008,3.22047 7.089592,4.98096 0.732118,0.78034 0.860203,2.15555 0.957669,2.75043 l 1.527751,1.36478 c -8.179251,12.30949 -11.964596,27.51412 -9.727559,43.00625 l -1.996488,0.58052 c -0.526429,0.67963 -1.269927,1.74878 -2.047664,2.06789 -2.452836,0.77251 -5.213379,1.0561 -8.545969,1.40553 -1.564601,0.13039 -2.914719,0.0525 -4.573839,0.3667 -0.365065,0.0691 -0.873573,0.20178 -1.273187,0.29532 l -0.04075,0.0103 c -0.0218,0.004 -0.0502,0.0156 -0.07137,0.0201 -2.809754,0.67897 -4.614593,3.26153 -4.033729,5.8063 0.581511,2.54508 3.326074,4.09271 6.152456,3.4835 0.02061,-0.004 0.0502,-0.005 0.07171,-0.0101 0.03162,-0.007 0.05963,-0.0228 0.09126,-0.0306 0.394414,-0.0864 0.887924,-0.18254 1.232767,-0.27478 1.630776,-0.43678 2.812055,-1.07826 4.278208,-1.64022 3.154287,-1.13106 5.766522,-2.07635 8.311937,-2.44469 1.06261,-0.0831 2.182936,0.65583 2.739986,0.96778 l 2.077996,-0.35661 c 4.781804,14.82555 14.803058,26.80841 27.492578,34.32761 l -0.86605,2.078 c 0.31226,0.80675 0.65648,1.89837 0.42375,2.69566 -0.92509,2.39904 -2.50989,4.93174 -4.31473,7.7552 -0.87354,1.30447 -1.7683,2.31691 -2.55679,3.8098 -0.18875,0.35723 -0.42896,0.90616 -0.61117,1.28328 -1.2253,2.6217 -0.3263,5.64071 2.02713,6.77407 2.3684,1.13988 5.3079,-0.0626 6.5801,-2.68917 0.002,-0.004 0.008,-0.007 0.0103,-0.0103 0.002,-0.003 -0.002,-0.007 0,-0.01 0.18125,-0.37256 0.43778,-0.86217 0.59064,-1.21257 0.67538,-1.54733 0.90031,-2.87332 1.37523,-4.36978 1.26144,-3.16832 1.95444,-6.49277 3.69049,-8.56423 0.4759,-0.56715 1.25071,-0.78556 2.05452,-1.00069 l 1.07958,-1.95573 c 11.06268,4.24624 23.44517,5.38578 35.81461,2.57734 a 61.857039,61.857039 0 0 0 8.17959,-2.46522 c 0.30347,0.53815 0.86736,1.57306 1.01862,1.83352 0.81686,0.26564 1.70802,0.40287 2.43458,1.47691 1.29894,2.21976 2.18718,4.84537 3.26967,8.01659 0.47525,1.49649 0.70993,2.82282 1.38534,4.36981 0.15384,0.35267 0.40939,0.84911 0.59095,1.22234 1.26929,2.63536 4.21855,3.84206 6.59022,2.6996 2.35343,-1.1337 3.25307,-4.15272 2.02747,-6.77408 -0.18255,-0.37745 -0.43287,-0.92605 -0.6216,-1.2833 -0.78883,-1.49289 -1.68293,-2.49519 -2.55682,-3.79936 -1.80484,-2.82344 -3.30195,-5.16903 -4.22734,-7.56875 -0.38692,-1.23732 0.0652,-2.00691 0.36669,-2.81105 -0.18024,-0.20698 -0.56651,-1.37554 -0.79437,-1.92511 13.18728,-7.7868 22.9142,-20.21657 27.48216,-34.57208 0.61705,0.0971 1.68913,0.28685 2.03725,0.3566 0.71712,-0.47264 1.37621,-1.09 2.66895,-0.98798 2.54508,0.36802 5.15762,1.31361 8.31193,2.44469 1.46616,0.56163 2.64743,1.21353 4.27819,1.64999 0.34453,0.0923 0.83838,0.17831 1.23245,0.26501 0.0317,0.007 0.0597,0.0232 0.0916,0.0303 0.0216,0.004 0.0512,0.005 0.0717,0.0103 2.8267,0.60825 5.5716,-0.93874 6.15212,-3.48382 0.58022,-2.54477 -1.22364,-5.128 -4.03372,-5.80599 -0.40875,-0.0932 -0.98829,-0.25097 -1.38532,-0.32594 -1.65881,-0.31422 -3.00859,-0.23698 -4.57351,-0.36672 -3.33291,-0.34941 -6.09346,-0.63334 -8.5463,-1.40585 -1.00003,-0.38789 -1.71127,-1.57797 -2.05744,-2.06788 l -1.92542,-0.55999 c 0.9984,-7.22159 0.72914,-14.73723 -0.99809,-22.25707 -1.74355,-7.5896 -4.82419,-14.5312 -8.93322,-20.64716 0.49385,-0.44916 1.42641,-1.27482 1.69074,-1.51798 0.0773,-0.85531 0.011,-1.75201 0.89639,-2.69925 1.87458,-1.76018 4.23843,-3.22015 7.08959,-4.98096 1.35338,-0.79632 2.6044,-1.30938 3.96236,-2.31236 0.30736,-0.226868 0.72687,-0.586063 1.04957,-0.845516 2.28627,-1.824078 2.81302,-4.970217 1.17117,-7.028304 -1.64185,-2.05811 -4.82321,-2.25237 -7.11013,-0.428005 -0.32532,0.257848 -0.76698,0.594234 -1.05935,0.845541 -1.27973,1.101088 -2.07016,2.188495 -3.14745,3.330959 -2.35083,2.38798 -4.29417,4.380225 -6.42756,5.816405 -0.92444,0.53783 -2.27846,0.35203 -2.89289,0.31552 l -1.81299,1.29374 C 181.85395,92.289093 167.77712,85.357606 152.61976,84.011057 c -0.0424,-0.635275 -0.0978,-1.783299 -0.11213,-2.129149 -0.62063,-0.593562 -1.37,-1.100441 -1.5584,-2.383402 -0.20731,-2.563336 0.13885,-5.321267 0.53978,-8.647987 0.22164,-1.55449 0.58901,-2.845622 0.6519,-4.533109 0.0144,-0.383321 -0.008,-0.940059 -0.0101,-1.354671 0,-2.925142 -2.13438,-5.296829 -4.76714,-5.296829 z m -5.96927,36.976021 -1.41565,25.006853 -0.10202,0.0512 c -0.0949,2.23703 -1.93617,4.02328 -4.19669,4.02328 -0.92573,0 -1.78072,-0.29726 -2.47533,-0.80445 l -0.0407,0.0201 -20.50472,-14.53577 c 6.30208,-6.19645 14.36269,-10.776179 23.65249,-12.885107 a 50.23827,50.23827 0 0 1 5.08266,-0.876184 z m 11.94864,0 c 10.84559,1.333827 20.87596,6.245033 28.56206,13.771733 l -20.37236,14.44384 -0.0717,-0.0303 c -1.8081,1.32046 -4.35579,0.99286 -5.76523,-0.77417 a 4.1745434,4.1745434 0 0 1 -0.9166,-2.43489 l -0.0206,-0.01 z m -48.11954,23.102273 18.72204,16.74609 -0.0201,0.1017 c 1.68976,1.4691 1.93879,4.0184 0.52966,5.78574 a 4.2022497,4.2022497 0 0 1 -2.18002,1.43618 l -0.0201,0.0815 -23.998647,6.92662 c -1.221714,-11.16897 1.410719,-22.02596 6.967337,-31.07782 z m 84.14801,0.01 c 2.78172,4.50898 4.88806,9.54504 6.14234,15.0045 1.23864,5.39396 1.5496,10.77845 1.03881,15.98203 l -24.12088,-6.94679 -0.0201,-0.10204 c -2.16013,-0.58997 -3.48775,-2.78726 -2.98481,-4.99107 a 4.1676983,4.1676983 0 0 1 1.33448,-2.23085 l -0.01,-0.0508 18.62036,-16.66461 z m -45.84796,18.02974 h 7.66978 l 4.76748,5.95916 -1.71128,7.43575 -6.88586,3.31043 -6.9064,-3.32051 -1.71129,-7.43609 z m 24.58929,20.39291 c 0.32596,-0.0163 0.65061,0.0129 0.96778,0.0713 l 0.0407,-0.0512 24.82366,4.19673 c -3.6328,10.20705 -10.58484,19.04898 -19.87333,24.96642 l -9.63597,-23.27537 0.0303,-0.0407 c -0.88497,-2.05679 0,-4.4689 2.03724,-5.44969 0.52155,-0.251 1.0662,-0.39017 1.60957,-0.41756 z m -41.69196,0.1017 c 1.89413,0.0267 3.59336,1.34164 4.03372,3.27001 0.20601,0.90291 0.10559,1.79701 -0.23436,2.58713 l 0.0713,0.0916 -9.53426,23.04131 c -8.91396,-5.72025 -16.01431,-14.28479 -19.81204,-24.79335 l 24.60983,-4.17616 0.0408,0.0509 c 0.2751,-0.0505 0.55413,-0.075 0.82467,-0.0714 z m 20.7899,10.09491 a 4.1605272,4.1605272 0 0 1 1.96587,0.41722 c 0.83444,0.40192 1.47887,1.0346 1.88467,1.79279 h 0.0913 l 12.13214,21.92068 a 50.280968,50.280968 0 0 1 -4.84862,1.35498 c -9.27837,2.10667 -18.52745,1.46812 -26.90194,-1.38532 l 12.10119,-21.87992 h 0.0206 a 4.2081171,4.2081171 0 0 1 3.55489,-2.22074 z"
   color="#000000"
   font-weight="400"
   font-family="Sans"
   overflow="visible"
   fill="#ffffff"
   stroke="#ffffff"
   stroke-width="0.011189"
   id="path2" /><path
   id="path4043"
   d="m 147.10502,89.024511 c -31.34358,0 -56.651225,25.334089 -56.651225,56.581899 0,9.8255 2.510665,19.07006 6.911816,27.12491 l 49.741949,83.27395 49.74192,-83.27395 c 4.4011,-8.05485 6.91182,-17.29941 6.91182,-27.12491 0,-31.24907 -25.30826,-56.581899 -56.65123,-56.581899 z m -0.63012,32.882979 c 0.21027,-0.005 0.41857,0 0.63012,0 13.53978,0 24.51559,10.9761 24.51559,24.51589 0,13.53976 -10.97612,24.51555 -24.51559,24.51555 -13.53977,0 -24.51556,-10.97612 -24.51556,-24.51555 0,-13.32805 10.63836,-24.18005 23.88544,-24.51589 z"
   inkscape:connector-curvature="0"
   style="fill:#ff0000;stroke:none;stroke-width:75.7216" /></svg>
